<?xml version="1.0" standalone="yes"?>

<svg version="1.1" viewBox="0.0 0.0 380.0 138.0" fill="none" stroke="none" stroke-linecap="square" stroke-miterlimit="10" xmlns="http://www.w3.org/2000/svg" xmlns:xlink="http://www.w3.org/1999/xlink"><clipPath id="p.0"><path d="m0 0l380.0 0l0 138.0l-380.0 0l0 -138.0z" clip-rule="nonzero"></path></clipPath><g clip-path="url(#p.0)"><path fill="#000000" fill-opacity="0.0" d="m0 0l380.41733 0l0 138.68504l-380.41733 0z" fill-rule="nonzero"></path><path fill="#000000" fill-opacity="0.0" d="m-10.551181 -4.1679792l108.88188 0l0 139.1811l-108.88188 0z" fill-rule="nonzero"></path><path fill="#2c3e50" d="m34.35507 96.99202l-3.1875 -4.875q-1.96875 2.671875 -4.921875 4.25q-2.953125 1.5625 -6.46875 1.5625l-1.453125 0q-2.906249 0 -5.484374 -1.09375q-2.578125 -1.109375 -4.5 -3.03125q-1.9218755 -1.921875 -3.0312505 -4.5q-1.09375 -2.578125 -1.09375 -5.484375l0 -34.82813l5.7656255 0l0 35.156254q0 1.734375 0.65625 3.265625q0.65625 1.515625 1.78125 2.640625q1.125 1.125 2.640625 1.78125q1.531249 0.65625 3.265624 0.65625l3.84375 0q1.734375 0 3.25 -0.65625q1.53125 -0.65625 2.65625 -1.78125q1.125 -1.125 1.78125 -2.640625q0.65625 -1.53125 0.65625 -3.265625l0 -35.156254l5.765625 0l0 48.000004l-1.921875 0zm39.750004 0l0 -35.156254q0 -1.734375 -0.65625 -3.25q-0.65625 -1.53125 -1.78125 -2.65625q-1.125 -1.125 -2.65625 -1.78125q-1.515625 -0.65625 -3.25 -0.65625l-3.8437538 0q-1.734375 0 -3.265625 0.65625q-1.515625 0.65625 -2.640625 1.78125q-1.125 1.125 -1.78125 2.65625q-0.65625 1.515625 -0.65625 3.25l0 35.156254l-5.765625 0l0 -48.000004l1.921875 0l3.140625 4.875q1.96875 -2.671875 4.9375 -4.234375q2.984375 -1.578125 6.500004 -1.578125l1.453125 0q2.90625 0 5.484375 1.109375q2.578125 1.09375 4.5 3.015625q1.921875 1.921875 3.015625 4.5q1.109375 2.578125 1.109375 5.484375l0 34.82813l-5.765625 0z" fill-rule="nonzero"></path><path fill="#000000" fill-opacity="0.0" d="m237.44882 -4.1601048l48.0 0l0 157.22835l-48.0 0z" fill-rule="nonzero"></path><path fill="#7f8c8d" d="m254.13632 116.21864l0 -94.5l6.046875 0l0 94.5l-6.046875 0z" fill-rule="nonzero"></path><path fill="#000000" fill-opacity="0.0" d="m97.0 -4.1601048l155.93701 0l0 139.1811l-155.93701 0z" fill-rule="nonzero"></path><path fill="#2c3e50" d="m144.76562 84.81239q0 2.90625 -1.171875 5.328125q-1.171875 2.40625 -3.1875 4.140625q-2.015625 1.734375 -4.671875 2.703125q-2.640625 0.953125 -5.546875 0.953125l-3.84375 0q-2.90625 0 -5.5625 -1.09375q-2.640625 -1.109375 -4.640625 -3.03125q-1.984375 -1.921875 -3.1875 -4.5q-1.1875 -2.578125 -1.1875 -5.484375l0 -1.921875l5.765625 -0.9375l0 3.1875q0 1.734375 0.71875 3.265625q0.734375 1.515625 1.953125 2.640625q1.21875 1.125 2.8125 1.78125q1.59375 0.65625 3.328125 0.65625l3.84375 0q1.734375 0 3.328125 -0.515625q1.59375 -0.515625 2.828125 -1.46875q1.25 -0.96875 1.96875 -2.328125q0.734375 -1.359375 0.734375 -3.09375q0 -2.578125 -1.125 -4.21875q-1.125 -1.640625 -2.984375 -2.734375q-1.84375 -1.109375 -4.21875 -1.828125q-2.359375 -0.734375 -4.84375 -1.453125q-2.484375 -0.734375 -4.859375 -1.671875q-2.359375 -0.9375 -4.21875 -2.453125q-1.84375 -1.53125 -2.96875 -3.828125q-1.125 -2.296875 -1.125 -5.718754q0 -2.90625 1.125 -5.3125q1.125 -2.421875 3.046875 -4.15625q1.921875 -1.734375 4.46875 -2.6875q2.5625 -0.96875 5.46875 -0.96875l3.375 0q2.90625 0 5.484375 1.109375q2.578125 1.09375 4.5 3.015625q1.921875 1.921875 3.015625 4.5q1.109375 2.578125 1.109375 5.484375l0 0.1875l-5.765625 0.9375l0 -1.453125q0 -1.734375 -0.65625 -3.25q-0.65625 -1.53125 -1.78125 -2.65625q-1.125 -1.125 -2.65625 -1.78125q-1.515625 -0.65625 -3.25 -0.65625l-3.375 0q-1.734375 0 -3.265625 0.515625q-1.515625 0.515625 -2.640625 1.484375q-1.125 0.953125 -1.78125 2.3125q-0.65625 1.359375 -0.65625 3.09375q0 2.484375 1.125 4.062504q1.125 1.5625 2.96875 2.640625q1.859375 1.078125 4.21875 1.8125q2.375 0.71875 4.828125 1.5q2.46875 0.765625 4.828125 1.75q2.375 0.984375 4.21875 2.53125q1.859375 1.546875 2.984375 3.875q1.125 2.3125 1.125 5.734375zm43.125 -0.984375q0 2.90625 -1.109375 5.484375q-1.09375 2.578125 -3.015625 4.5q-1.921875 1.921875 -4.5 3.03125q-2.578125 1.09375 -5.484375 1.09375l-3.84375 0q-2.90625 0 -5.484375 -1.09375q-2.578125 -1.109375 -4.5 -3.03125q-1.921875 -1.921875 -3.03125 -4.5q-1.09375 -2.578125 -1.09375 -5.484375l0 -21.656254q0 -2.90625 1.09375 -5.484375q1.109375 -2.578125 3.03125 -4.5q1.921875 -1.921875 4.5 -3.015625q2.578125 -1.109375 5.484375 -1.109375l3.84375 0q2.90625 0 5.484375 1.109375q2.578125 1.09375 4.5 3.015625q1.921875 1.921875 3.015625 4.5q1.109375 2.578125 1.109375 5.484375l0 21.656254l0 0zm-5.765625 -21.984379q0 -1.734375 -0.65625 -3.25q-0.65625 -1.53125 -1.78125 -2.65625q-1.125 -1.125 -2.65625 -1.78125q-1.515625 -0.65625 -3.25 -0.65625l-3.84375 0q-1.734375 0 -3.265625 0.65625q-1.515625 0.65625 -2.640625 1.78125q-1.125 1.125 -1.78125 2.65625q-0.65625 1.515625 -0.65625 3.25l0 22.312504q0 1.734375 0.65625 3.265625q0.65625 1.515625 1.78125 2.640625q1.125 1.125 2.640625 1.78125q1.53125 0.65625 3.265625 0.65625l3.84375 0q1.734375 0 3.25 -0.65625q1.53125 -0.65625 2.65625 -1.78125q1.125 -1.125 1.78125 -2.640625q0.65625 -1.53125 0.65625 -3.265625l0 -22.312504zm43.59375 35.156254l0 -35.156254q0 -1.734375 -0.65625 -3.25q-0.65625 -1.53125 -1.78125 -2.65625q-1.125 -1.125 -2.65625 -1.78125q-1.515625 -0.65625 -3.25 -0.65625l-3.84375 0q-1.734375 0 -3.265625 0.65625q-1.515625 0.65625 -2.640625 1.78125q-1.125 1.125 -1.78125 2.65625q-0.65625 1.515625 -0.65625 3.25l0 35.156254l-5.765625 0l0 -48.000004l1.921875 0l3.140625 4.875q1.96875 -2.671875 4.9375 -4.234375q2.984375 -1.578125 6.5 -1.578125l1.453125 0q2.90625 0 5.484375 1.109375q2.578125 1.09375 4.5 3.015625q1.921875 1.921875 3.015625 4.5q1.109375 2.578125 1.109375 5.484375l0 34.82813l-5.765625 0z" fill-rule="nonzero"></path><path fill="#000000" fill-opacity="0.0" d="m268.91553 21.973228l129.5433 0l0 100.0315l-129.5433 0z" fill-rule="nonzero"></path><path fill="#34495e" d="m290.5249 57.302605q0 0.96875 -0.375 1.828125q-0.359375 0.859375 -1.0 1.5q-0.640625 0.640625 -1.5 1.015625q-0.859375 0.359375 -1.828125 0.359375l-0.484375 0q-1.078125 0 -2.0 -0.4375q-0.921875 -0.4375 -1.578125 -1.21875l0 7.75l-1.921875 0l0 -22.40625l0.640625 0l1.046875 1.625q0.65625 -0.890625 1.640625 -1.40625q1.0 -0.53125 2.171875 -0.53125l0.484375 0q0.96875 0 1.828125 0.375q0.859375 0.359375 1.5 1.0q0.640625 0.640625 1.0 1.5q0.375 0.859375 0.375 1.828125l0 7.21875l0 0zm-1.921875 -7.328125q0 -0.578125 -0.21875 -1.078125q-0.21875 -0.515625 -0.59375 -0.890625q-0.375 -0.375 -0.890625 -0.59375q-0.5 -0.21875 -1.078125 -0.21875l-1.28125 0q-0.578125 0 -1.09375 0.21875q-0.5 0.21875 -0.875 0.59375q-0.375 0.375 -0.59375 0.890625q-0.21875 0.5 -0.21875 1.078125l0 7.4375q0 0.578125 0.21875 1.09375q0.21875 0.5 0.59375 0.875q0.375 0.375 0.875 0.59375q0.515625 0.21875 1.09375 0.21875l1.28125 0q0.578125 0 1.078125 -0.21875q0.515625 -0.21875 0.890625 -0.59375q0.375 -0.375 0.59375 -0.875q0.21875 -0.515625 0.21875 -1.09375l0 -7.4375zm10.46875 -2.453125q-0.578125 0 -1.09375 0.21875q-0.5 0.21875 -0.875 0.59375q-0.375 0.375 -0.59375 0.890625q-0.21875 0.5 -0.21875 1.078125l0 11.390625l-1.921875 0l0 -16.0l0.640625 0l1.046875 1.625q0.65625 -0.890625 1.640625 -1.40625q1.0 -0.53125 2.171875 -0.53125l1.125 0l0 2.140625l-1.921875 0zm15.171875 9.78125q0 0.96875 -0.375 1.828125q-0.359375 0.859375 -1.0 1.5q-0.640625 0.640625 -1.5 1.015625q-0.859375 0.359375 -1.828125 0.359375l-1.28125 0q-0.96875 0 -1.828125 -0.359375q-0.859375 -0.375 -1.5 -1.015625q-0.640625 -0.640625 -1.015625 -1.5q-0.359375 -0.859375 -0.359375 -1.828125l0 -7.21875q0 -0.96875 0.359375 -1.828125q0.375 -0.859375 1.015625 -1.5q0.640625 -0.640625 1.5 -1.0q0.859375 -0.375 1.828125 -0.375l1.28125 0q0.96875 0 1.828125 0.375q0.859375 0.359375 1.5 1.0q0.640625 0.640625 1.0 1.5q0.375 0.859375 0.375 1.828125l0 7.21875l0 0zm-1.921875 -7.328125q0 -0.578125 -0.21875 -1.078125q-0.21875 -0.515625 -0.59375 -0.890625q-0.375 -0.375 -0.890625 -0.59375q-0.5 -0.21875 -1.078125 -0.21875l-1.28125 0q-0.578125 0 -1.09375 0.21875q-0.5 0.21875 -0.875 0.59375q-0.375 0.375 -0.59375 0.890625q-0.21875 0.5 -0.21875 1.078125l0 7.4375q0 0.578125 0.21875 1.09375q0.21875 0.5 0.59375 0.875q0.375 0.375 0.875 0.59375q0.515625 0.21875 1.09375 0.21875l1.28125 0q0.578125 0 1.078125 -0.21875q0.515625 -0.21875 0.890625 -0.59375q0.375 -0.375 0.59375 -0.875q0.21875 -0.515625 0.21875 -1.09375l0 -7.4375zm16.609375 13.734375q0 0.96875 -0.375 1.78125q-0.359375 0.8125 -1.0 1.390625q-0.640625 0.578125 -1.5 0.890625q-0.859375 0.328125 -1.828125 0.328125l-0.796875 0q-0.96875 0 -1.828125 -0.328125q-0.859375 -0.3125 -1.5 -0.890625q-0.640625 -0.578125 -1.015625 -1.390625q-0.359375 -0.8125 -0.359375 -1.78125l0 -0.0625q0 -0.9375 0.34375 -1.71875q0.34375 -0.78125 0.9375 -1.359375q-0.75 -0.453125 -1.203125 -1.21875q-0.4375 -0.78125 -0.4375 -1.71875q0 -0.84375 0.359375 -1.5625q0.359375 -0.734375 0.984375 -1.1875q-0.75 -0.65625 -1.1875 -1.578125q-0.4375 -0.921875 -0.4375 -2.015625l0 -1.203125q0 -0.96875 0.359375 -1.828125q0.375 -0.859375 1.015625 -1.5q0.640625 -0.640625 1.5 -1.0q0.859375 -0.375 1.828125 -0.375l0.796875 0q1.171875 0 2.15625 0.53125q1.0 0.515625 1.65625 1.40625l1.046875 -1.625l0.640625 0l0 5.59375q0 0.96875 -0.375 1.828125q-0.359375 0.859375 -1.0 1.5q-0.640625 0.640625 -1.5 1.015625q-0.859375 0.359375 -1.828125 0.359375l-2.78125 0q-0.328125 0 -0.625 0.140625q-0.296875 0.125 -0.53125 0.34375q-0.21875 0.21875 -0.34375 0.53125q-0.125 0.296875 -0.125 0.625q0 0.328125 0.125 0.625q0.125 0.296875 0.34375 0.53125q0.234375 0.21875 0.53125 0.34375q0.296875 0.125 0.625 0.125l2.625 0q0.96875 0 1.828125 0.328125q0.859375 0.3125 1.5 0.890625q0.640625 0.578125 1.0 1.390625q0.375 0.8125 0.375 1.78125l0 0.0625l0 0zm-1.75 -13.734375q0 -0.578125 -0.21875 -1.078125q-0.21875 -0.515625 -0.609375 -0.890625q-0.375 -0.375 -0.890625 -0.59375q-0.5 -0.21875 -1.078125 -0.21875l-1.59375 0q-0.578125 0 -1.09375 0.21875q-0.5 0.21875 -0.875 0.59375q-0.375 0.375 -0.59375 0.890625q-0.21875 0.5 -0.21875 1.078125l0 1.421875q0 0.578125 0.21875 1.09375q0.21875 0.5 0.59375 0.875q0.375 0.375 0.875 0.59375q0.515625 0.21875 1.09375 0.21875l1.59375 0q0.578125 0 1.078125 -0.21875q0.515625 -0.21875 0.890625 -0.59375q0.390625 -0.375 0.609375 -0.875q0.21875 -0.515625 0.21875 -1.09375l0 -1.421875zm-0.078125 13.578125q0 -0.578125 -0.21875 -1.046875q-0.21875 -0.453125 -0.59375 -0.765625q-0.375 -0.3125 -0.890625 -0.484375q-0.5 -0.171875 -1.078125 -0.171875l-0.984375 0q-0.578125 0 -1.09375 0.171875q-0.5 0.171875 -0.875 0.484375q-0.375 0.3125 -0.59375 0.765625q-0.21875 0.46875 -0.21875 1.046875l0 0.25q0 0.578125 0.21875 1.03125q0.21875 0.453125 0.59375 0.765625q0.375 0.328125 0.875 0.5q0.515625 0.171875 1.09375 0.171875l0.984375 0q0.578125 0 1.078125 -0.171875q0.515625 -0.171875 0.890625 -0.5q0.375 -0.3125 0.59375 -0.765625q0.21875 -0.453125 0.21875 -1.03125l0 -0.25zm10.21875 -16.03125q-0.578125 0 -1.09375 0.21875q-0.5 0.21875 -0.875 0.59375q-0.375 0.375 -0.59375 0.890625q-0.21875 0.5 -0.21875 1.078125l0 11.390625l-1.921875 0l0 -16.0l0.640625 0l1.046875 1.625q0.65625 -0.890625 1.640625 -1.40625q1.0 -0.53125 2.171875 -0.53125l1.125 0l0 2.140625l-1.921875 0zm14.53125 14.171875l-1.0625 -1.59375q-0.65625 0.859375 -1.640625 1.390625q-0.984375 0.515625 -2.15625 0.515625l-0.484375 0q-0.96875 0 -1.828125 -0.359375q-0.859375 -0.375 -1.5 -1.015625q-0.640625 -0.640625 -1.015625 -1.5q-0.359375 -0.859375 -0.359375 -1.828125l0 -0.15625q0 -0.96875 0.359375 -1.828125q0.375 -0.859375 1.015625 -1.5q0.640625 -0.640625 1.5 -1.0q0.859375 -0.375 1.828125 -0.375l4.0625 0l0 -2.46875q0 -0.578125 -0.21875 -1.078125q-0.21875 -0.515625 -0.59375 -0.890625q-0.375 -0.375 -0.890625 -0.59375q-0.5 -0.21875 -1.078125 -0.21875l-1.125 0q-0.578125 0 -1.09375 0.21875q-0.5 0.21875 -0.875 0.59375q-0.375 0.375 -0.59375 0.890625q-0.21875 0.5 -0.21875 1.078125l0 0.578125l-1.921875 -0.3125l0 -0.15625q0 -0.96875 0.359375 -1.828125q0.375 -0.859375 1.015625 -1.5q0.640625 -0.640625 1.5 -1.0q0.859375 -0.375 1.828125 -0.375l1.125 0q0.96875 0 1.828125 0.375q0.859375 0.359375 1.5 1.0q0.640625 0.640625 1.0 1.5q0.375 0.859375 0.375 1.828125l0 11.609375l-0.640625 0zm-1.28125 -7.75l-4.0625 0q-0.578125 0 -1.09375 0.21875q-0.5 0.21875 -0.875 0.609375q-0.375 0.375 -0.59375 0.890625q-0.21875 0.5 -0.21875 1.078125l0 0.671875q0 0.578125 0.21875 1.09375q0.21875 0.5 0.59375 0.875q0.375 0.375 0.875 0.59375q0.515625 0.21875 1.09375 0.21875l1.28125 0q0.578125 0 1.078125 -0.21875q0.515625 -0.21875 0.890625 -0.59375q0.375 -0.375 0.59375 -0.875q0.21875 -0.515625 0.21875 -1.09375l0 -3.46875zm22.65625 7.75l0 -11.71875q0 -0.578125 -0.21875 -1.078125q-0.21875 -0.515625 -0.59375 -0.890625q-0.375 -0.375 -0.890625 -0.59375q-0.5 -0.21875 -1.078125 -0.21875l-0.953125 0q-0.578125 0 -1.09375 0.21875q-0.5 0.21875 -0.890625 0.59375q-0.375 0.375 -0.59375 0.890625q-0.21875 0.5 -0.21875 1.078125l0 11.71875l-1.90625 0l0 -11.71875q0 -0.578125 -0.21875 -1.078125q-0.21875 -0.515625 -0.609375 -0.890625q-0.375 -0.375 -0.890625 -0.59375q-0.5 -0.21875 -1.078125 -0.21875l-0.953125 0q-0.578125 0 -1.09375 0.21875q-0.5 0.21875 -0.875 0.59375q-0.375 0.375 -0.59375 0.890625q-0.21875 0.5 -0.21875 1.078125l0 11.71875l-1.921875 0l0 -16.0l0.640625 0l1.046875 1.625q0.65625 -0.890625 1.640625 -1.40625q1.0 -0.53125 2.171875 -0.53125l0.15625 0q1.359375 0 2.453125 0.671875q1.09375 0.671875 1.6875 1.78125q0.296875 -0.546875 0.734375 -1.0q0.4375 -0.453125 0.96875 -0.765625q0.53125 -0.328125 1.15625 -0.5q0.625 -0.1875 1.296875 -0.1875l0.15625 0q0.96875 0 1.828125 0.375q0.859375 0.359375 1.5 1.0q0.640625 0.640625 1.0 1.5q0.375 0.859375 0.375 1.828125l0 11.609375l-1.921875 0z" fill-rule="nonzero"></path><path fill="#34495e" d="m285.66553 99.69323q-0.875 0 -1.65625 -0.328125q-0.765625 -0.328125 -1.34375 -0.90625q-0.5625 -0.578125 -0.90625 -1.34375q-0.328125 -0.765625 -0.328125 -1.640625l0 -9.953125l-2.875 0l0 -1.828125l2.875 0l0 -3.84375l1.921875 -0.3125l0 4.15625l4.0625 0l0 1.828125l-4.0625 0l0 10.046875q0 0.484375 0.171875 0.90625q0.1875 0.40625 0.5 0.71875q0.3125 0.3125 0.734375 0.5q0.421875 0.171875 0.90625 0.171875l1.75 0l0 1.828125l-1.75 0zm14.046875 0l0 -11.71875q0 -0.578125 -0.21875 -1.078125q-0.21875 -0.515625 -0.59375 -0.890625q-0.375 -0.375 -0.890625 -0.59375q-0.5 -0.21875 -1.078125 -0.21875l-1.28125 0q-0.578125 0 -1.09375 0.21875q-0.5 0.21875 -0.875 0.59375q-0.375 0.375 -0.59375 0.890625q-0.21875 0.5 -0.21875 1.078125l0 11.71875l-1.921875 0l0 -22.40625l1.921875 0l0 7.75q0.65625 -0.78125 1.578125 -1.21875q0.921875 -0.4375 2.0 -0.4375l0.484375 0q0.96875 0 1.828125 0.375q0.859375 0.359375 1.5 1.0q0.640625 0.640625 1.0 1.5q0.375 0.859375 0.375 1.828125l0 11.609375l-1.921875 0zm16.453125 -4.390625q0 0.96875 -0.375 1.828125q-0.359375 0.859375 -1.0 1.5q-0.640625 0.640625 -1.5 1.015625q-0.859375 0.359375 -1.828125 0.359375l-1.28125 0q-0.96875 0 -1.828125 -0.359375q-0.859375 -0.375 -1.5 -1.015625q-0.640625 -0.640625 -1.015625 -1.5q-0.359375 -0.859375 -0.359375 -1.828125l0 -7.21875q0 -0.96875 0.359375 -1.828125q0.375 -0.859375 1.015625 -1.5q0.640625 -0.640625 1.5 -1.0q0.859375 -0.375 1.828125 -0.375l1.28125 0q0.96875 0 1.828125 0.375q0.859375 0.359375 1.5 1.0q0.640625 0.640625 1.0 1.5q0.375 0.859375 0.375 1.828125l0 3.765625l-8.765625 0l0 3.5625q0 0.578125 0.21875 1.09375q0.21875 0.5 0.59375 0.875q0.375 0.375 0.875 0.59375q0.515625 0.21875 1.09375 0.21875l1.28125 0q0.578125 0 1.078125 -0.21875q0.515625 -0.21875 0.890625 -0.59375q0.375 -0.375 0.59375 -0.875q0.21875 -0.515625 0.21875 -1.09375l0 -1.0625l1.921875 0.3125l0 0.640625l0 0zm-1.921875 -7.328125q0 -0.578125 -0.21875 -1.078125q-0.21875 -0.515625 -0.59375 -0.890625q-0.375 -0.375 -0.890625 -0.59375q-0.5 -0.21875 -1.078125 -0.21875l-1.28125 0q-0.578125 0 -1.09375 0.21875q-0.5 0.21875 -0.875 0.59375q-0.375 0.375 -0.59375 0.890625q-0.21875 0.5 -0.21875 1.078125l0 2.375l6.84375 0l0 -2.375zm26.59375 11.71875l-1.046875 0l-3.75 -12.0625l-0.0625 -0.828125l-0.0625 0.828125l-3.75 12.0625l-1.0625 0l-5.34375 -16.0l1.953125 0l3.8125 12.09375l0.0625 0.828125l0.0625 -0.828125l3.75 -12.09375l1.15625 0l3.734375 12.09375l0.0625 0.828125l0.0625 -0.828125l3.8125 -12.09375l1.953125 0l-5.34375 16.0zm18.28125 -4.390625q0 0.96875 -0.375 1.828125q-0.359375 0.859375 -1.0 1.5q-0.640625 0.640625 -1.5 1.015625q-0.859375 0.359375 -1.828125 0.359375l-1.28125 0q-0.96875 0 -1.828125 -0.359375q-0.859375 -0.375 -1.5 -1.015625q-0.640625 -0.640625 -1.015625 -1.5q-0.359375 -0.859375 -0.359375 -1.828125l0 -7.21875q0 -0.96875 0.359375 -1.828125q0.375 -0.859375 1.015625 -1.5q0.640625 -0.640625 1.5 -1.0q0.859375 -0.375 1.828125 -0.375l1.28125 0q0.96875 0 1.828125 0.375q0.859375 0.359375 1.5 1.0q0.640625 0.640625 1.0 1.5q0.375 0.859375 0.375 1.828125l0 3.765625l-8.765625 0l0 3.5625q0 0.578125 0.21875 1.09375q0.21875 0.5 0.59375 0.875q0.375 0.375 0.875 0.59375q0.515625 0.21875 1.09375 0.21875l1.28125 0q0.578125 0 1.078125 -0.21875q0.515625 -0.21875 0.890625 -0.59375q0.375 -0.375 0.59375 -0.875q0.21875 -0.515625 0.21875 -1.09375l0 -1.0625l1.921875 0.3125l0 0.640625l0 0zm-1.921875 -7.328125q0 -0.578125 -0.21875 -1.078125q-0.21875 -0.515625 -0.59375 -0.890625q-0.375 -0.375 -0.890625 -0.59375q-0.5 -0.21875 -1.078125 -0.21875l-1.28125 0q-0.578125 0 -1.09375 0.21875q-0.5 0.21875 -0.875 0.59375q-0.375 0.375 -0.59375 0.890625q-0.21875 0.5 -0.21875 1.078125l0 2.375l6.84375 0l0 -2.375zm16.453125 7.328125q0 0.96875 -0.375 1.828125q-0.359375 0.859375 -1.0 1.5q-0.640625 0.640625 -1.5 1.015625q-0.859375 0.359375 -1.828125 0.359375l-1.28125 0q-0.96875 0 -1.828125 -0.359375q-0.859375 -0.375 -1.5 -1.015625q-0.640625 -0.640625 -1.015625 -1.5q-0.359375 -0.859375 -0.359375 -1.828125l0 -18.015625l1.921875 0l0 7.75q0.65625 -0.78125 1.578125 -1.21875q0.921875 -0.4375 2.0 -0.4375l0.484375 0q0.96875 0 1.828125 0.375q0.859375 0.359375 1.5 1.0q0.640625 0.640625 1.0 1.5q0.375 0.859375 0.375 1.828125l0 7.21875l0 0zm-1.921875 -7.328125q0 -0.578125 -0.21875 -1.078125q-0.21875 -0.515625 -0.59375 -0.890625q-0.375 -0.375 -0.890625 -0.59375q-0.5 -0.21875 -1.078125 -0.21875l-1.28125 0q-0.578125 0 -1.09375 0.21875q-0.5 0.21875 -0.875 0.59375q-0.375 0.375 -0.59375 0.890625q-0.21875 0.5 -0.21875 1.078125l0 7.4375q0 0.578125 0.21875 1.09375q0.21875 0.5 0.59375 0.875q0.375 0.375 0.875 0.59375q0.515625 0.21875 1.09375 0.21875l1.28125 0q0.578125 0 1.078125 -0.21875q0.515625 -0.21875 0.890625 -0.59375q0.375 -0.375 0.59375 -0.875q0.21875 -0.515625 0.21875 -1.09375l0 -7.4375z" fill-rule="nonzero"></path><path fill="#2c3e50" d="m95.125 49.625l5.7637787 0l0 48.0l-5.7637787 0z" fill-rule="nonzero"></path></g></svg>

